<svg xmlns="http://www.w3.org/2000/svg" width="14.844" height="21" viewBox="0 0 14.844 21">
  <defs>
    <style>
      .cls-1 {
        fill: #f41353;
        fill-rule: evenodd;
      }
    </style>
  </defs>
  <path class="cls-1" d="M337.773,4762.73c-0.413-.23-2.217-1.16-3.032-0.51-1.678,1.35-4.706,5.32-6.394,8.22s-3.651,7.49-3.993,9.61c-0.166,1.03,1.535,2.14,1.936,2.39a1.347,1.347,0,0,0,.344.19l0.927,0.32a0.975,0.975,0,0,0,1.234-.59l1.473-4.24a0.97,0.97,0,0,0-.6-1.23l-1.142-.4c0.155-.38.313-0.75,0.474-1.13l3.953-6.78c0.246-.33.5-0.65,0.751-0.97l0.911,0.79a0.974,0.974,0,0,0,1.368-.09l2.955-3.37a0.959,0.959,0,0,0-.095-1.36l-0.735-.65A1.18,1.18,0,0,0,337.773,4762.73Z" transform="translate(-324.344 -4762)"/>
</svg>
